0
SECTION
2
HEADER
9
$INSUNITS
70
4
9
$ACADVER
1
AC1014
9
$HANDSEED
5
FFFF
0
ENDSEC
0
SECTION
2
TABLES
0
TABLE
2
VPORT
5
8
100
AcDbSymbolTable
0
ENDTAB
0
TABLE
2
LTYPE
5
5
100
AcDbSymbolTable
0
LTYPE
5
14
100
AcDbSymbolTableRecord
100
AcDbLinetypeTableRecord
2
BYBLOCK
70
0
0
LTYPE
5
15
100
AcDbSymbolTableRecord
100
AcDbLinetypeTableRecord
2
BYLAYER
70
0
0
ENDTAB
0
TABLE
2
LAYER
5
2
100
AcDbSymbolTable
70
2
0
LAYER
5
50
100
AcDbSymbolTableRecord
100
AcDbLayerTableRecord
2
0
70
0
6
CONTINUOUS
0
ENDTAB
0
TABLE
2
STYLE
5
3
100
AcDbSymbolTable
70
1
0
STYLE
5
11
100
AcDbSymbolTableRecord
100
AcDbTextStyleTableRecord
2
STANDARD
70
0
0
ENDTAB
0
TABLE
2
VIEW
5
6
100
AcDbSymbolTable
70
0
0
ENDTAB
0
TABLE
2
UCS
5
7
100
AcDbSymbolTable
70
0
0
ENDTAB
0
TABLE
2
APPID
5
9
100
AcDbSymbolTable
70
2
0
APPID
5
12
100
AcDbSymbolTableRecord
100
AcDbRegAppTableRecord
2
ACAD
70
0
0
ENDTAB
0
TABLE
2
DIMSTYLE
5
A
100
AcDbSymbolTable
70
1
0
ENDTAB
0
TABLE
2
BLOCK_RECORD
5
1
100
AcDbSymbolTable
70
1
0
BLOCK_RECORD
5
1F
100
AcDbSymbolTableRecord
100
AcDbBlockTableRecord
2
*MODEL_SPACE
0
BLOCK_RECORD
5
1B
100
AcDbSymbolTableRecord
100
AcDbBlockTableRecord
2
*PAPER_SPACE
0
ENDTAB
0
ENDSEC
0
SECTION
2
BLOCKS
0
BLOCK
5
20
100
AcDbEntity
100
AcDbBlockBegin
2
*MODEL_SPACE
0
ENDBLK
5
21
100
AcDbEntity
100
AcDbBlockEnd
0
BLOCK
5
1C
100
AcDbEntity
100
AcDbBlockBegin
2
*PAPER_SPACE
0
ENDBLK
5
1D
100
AcDbEntity
100
AcDbBlockEnd
0
ENDSEC
0
SECTION
2
ENTITIES
0
LWPOLYLINE
5
100
100
AcDbEntity
8
0
100
AcDbPolyline
90
4
70
1
43
0.0
10
363.93779573813043
20
667.8869880781233
10
363.92253345489985
20
562.84367989681232
10
336.22528244028354
20
546.70847044147627
10
328.44681638603214
20
568.57286514855093
0
LWPOLYLINE
5
101
100
AcDbEntity
8
0
100
AcDbPolyline
90
12
70
1
43
0.0
10
260.60899182919024
20
542.47868567273042
10
326.54494038669503
20
727.49792154266765
10
266.78412216340331
20
815.19464062226007
10
382.20425982628677
20
748.89508056658758
10
297.88473218141456
20
511.49252706256345
10
224.83675247157802
20
468.73298742483269
10
151.79498628645257
20
511.50314012828733
10
67.509952970885891
20
748.91794234474378
10
182.93972241989945
20
815.20073171455135
10
123.16616291957496
20
727.51269651759048
10
189.07522838373791
20
542.48388242715191
10
224.84058731771538
20
521.5199683338061
0
LWPOLYLINE
5
102
100
AcDbEntity
8
0
100
AcDbPolyline
90
4
70
1
43
0.0
10
85.7646467833994
20
562.86388739265499
10
85.7646467833994
20
667.90719668273368
10
121.24119590063133
20
568.58791813433766
10
113.45955313800674
20
546.72465383143026
0
LWPOLYLINE
5
103
100
AcDbEntity
8
0
100
AcDbPolyline
90
5
70
1
43
0.0
10
356.42769571673733
20
460.87446960773235
10
279.98358631100325
20
416.89765653751067
10
314.10242208964956
20
466.2924658606351
10
302.7178092727554
20
496.57559085657709
10
323.26828993393769
20
554.08183610268884
0
LWPOLYLINE
5
104
100
AcDbEntity
8
0
100
AcDbPolyline
90
6
70
1
43
0.0
10
308.74846017479734
20
708.1842878419792
10
252.18172182443749
20
549.45547701565715
10
224.8414529360461
20
533.43527775241773
10
197.50351199347276
20
549.45944925498884
10
140.95983676634654
20
708.19647727852737
10
224.85760822041823
20
755.81413134705463
0
LWPOLYLINE
5
105
100
AcDbEntity
8
0
100
AcDbPolyline
90
5
70
1
43
0.0
10
93.244668810892023
20
460.89358921633209
10
126.41761682184638
20
554.09613682666304
10
146.95974188766408
20
496.58690630240824
10
135.57072919979271
20
466.3054357551257
10
169.68238779214343
20
416.90566965206648
0
LWPOLYLINE
5
106
100
AcDbEntity
8
0
100
AcDbPolyline
90
6
70
1
43
0.0
10
437.60801765466562
20
482.5441380393213
10
440.45101307649168
20
733.47704954665915
10
224.55823477645777
20
861.4056115584724
10
5.8224610545976923
20
738.40126206294781
10
2.9794656327713902
20
487.46835055561013
10
218.87224393280516
20
359.53978854379682
0
ENDSEC
0
SECTION
2
OBJECTS
0
DICTIONARY
5
C
100
AcDbDictionary
3
ACAD_GROUP
350
D
3
ACAD_MLINESTYLE
350
17
0
DICTIONARY
5
D
100
AcDbDictionary
0
DICTIONARY
5
1A
330
C
100
AcDbDictionary
0
DICTIONARY
5
17
100
AcDbDictionary
0
ENDSEC
0
EOF
